<svg width="539" height="485" viewBox="0 0 539 485" fill="none" xmlns="http://www.w3.org/2000/svg">
<g id="dude">
<path id="Vector" d="M144.734 331.361H181.575L272.363 295.836C272.363 295.836 336.836 269.52 331.573 319.519C326.31 369.518 317.099 436.622 317.099 436.622C317.099 436.622 288.152 423.465 272.363 427.412C256.574 431.359 267.1 347.15 267.1 347.15C267.1 347.15 138.155 408.991 126.313 401.097C114.471 393.202 111.84 337.94 111.84 337.94L144.734 331.361Z" fill="#2F2E41"/>
<path id="Vector_2" opacity="0.1" d="M144.734 331.361H181.575L272.363 295.836C272.363 295.836 336.836 269.52 331.573 319.519C326.31 369.518 317.099 436.622 317.099 436.622C317.099 436.622 288.152 423.465 272.363 427.412C256.574 431.359 267.1 347.15 267.1 347.15C267.1 347.15 138.155 408.991 126.313 401.097C114.471 393.202 111.84 337.94 111.84 337.94L144.734 331.361Z" fill="black"/>
<path id="Vector_3" d="M202.778 215.987L247.364 280.046L351.309 366.887C351.309 366.887 447.36 389.255 434.202 405.044C421.045 420.833 340.783 389.255 340.783 389.255C340.783 389.255 221.048 302.414 217.101 295.836C213.154 289.257 169.734 227.416 169.734 227.416L202.778 215.987Z" fill="#A0616A"/>
<path id="Vector_4" opacity="0.1" d="M202.778 215.987L247.364 280.046L351.309 366.887C351.309 366.887 447.36 389.255 434.202 405.044C421.045 420.833 340.783 389.255 340.783 389.255C340.783 389.255 221.048 302.414 217.101 295.836C213.154 289.257 169.734 227.416 169.734 227.416L202.778 215.987Z" fill="black"/>
<path id="Vector_5" d="M176.312 164.259L205.259 220.837C205.259 220.837 198.68 248.468 188.154 251.1C177.628 253.731 132.892 216.89 132.892 216.89L176.312 164.259Z" fill="#D0CDE1"/>
<path id="Vector_6" opacity="0.1" d="M176.312 164.259L205.259 220.837C205.259 220.837 198.68 248.468 188.154 251.1C177.628 253.731 132.892 216.89 132.892 216.89L176.312 164.259Z" fill="black"/>
<path id="Vector_7" d="M529.451 302.067L538.002 337.339C538.097 337.732 538.082 338.144 537.959 338.529L499.171 459.741C499.018 460.221 498.704 460.633 498.283 460.91C497.862 461.187 497.359 461.311 496.857 461.262C496.355 461.212 495.886 460.992 495.527 460.638C495.168 460.285 494.941 459.819 494.884 459.318L489.518 412.099C489.483 411.785 489.515 411.468 489.613 411.167L525.215 301.904C525.364 301.448 525.657 301.053 526.051 300.779C526.444 300.505 526.916 300.366 527.395 300.385C527.874 300.403 528.334 300.578 528.705 300.881C529.076 301.185 529.338 301.601 529.451 302.067Z" fill="#2F2E41"/>
<path id="Vector_8" d="M526.306 305.046L534.2 335.309L499.99 445.833L492.096 411.623L526.306 305.046Z" fill="#F2F2F2"/>
<path id="Vector_9" d="M353.941 469.516C355.256 473.464 490.78 468.201 492.096 466.885C493.243 465.237 494.213 463.473 494.99 461.622C496.227 458.99 497.359 456.359 497.359 456.359L492.096 413.754L357.888 408.991C357.888 408.991 354.533 445.096 353.848 461.622C353.677 465.793 353.677 468.727 353.941 469.516Z" fill="#2F2E41"/>
<path id="Vector_10" opacity="0.1" d="M474.991 419.518L477.622 456.359H418.413V419.518H474.991Z" fill="black"/>
<path id="Vector_11" opacity="0.1" d="M398.677 431.359L399.03 431.289L397.361 447.149H364.467V431.359H398.677Z" fill="black"/>
<path id="Vector_12" opacity="0.1" d="M353.941 469.516C355.256 473.464 490.78 468.201 492.096 466.885C493.243 465.237 494.213 463.473 494.99 461.622H353.848C353.677 465.793 353.677 468.727 353.941 469.516Z" fill="black"/>
<path id="Vector_13" d="M196.049 145.838C228.749 145.838 255.258 119.329 255.258 86.6291C255.258 53.9286 228.749 27.4197 196.049 27.4197C163.348 27.4197 136.839 53.9286 136.839 86.6291C136.839 119.329 163.348 145.838 196.049 145.838Z" fill="#A0616A"/>
<path id="Vector_14" d="M192.102 139.26C192.102 139.26 172.365 173.47 168.418 191.89C164.471 210.311 109.208 155.049 109.208 155.049L101.972 135.97C101.972 135.97 153.944 111.629 149.997 91.8921C146.05 72.1557 192.102 139.26 192.102 139.26Z" fill="#A0616A"/>
<path id="Vector_15" d="M202.628 241.889L256.574 312.941L385.519 408.991C385.519 408.991 478.938 428.728 457.886 443.201C436.834 457.675 376.309 430.044 376.309 430.044C376.309 430.044 246.048 360.308 218.417 331.361C190.786 302.414 139.471 253.731 139.471 253.731L202.628 241.889Z" fill="#A0616A"/>
<path id="Vector_16" d="M130.261 352.413L146.05 377.413L240.281 347.767C260.957 341.262 283.629 343.656 301.968 355.209C318.415 365.571 328.941 382.018 305.257 406.36C257.89 455.043 226.312 428.728 226.312 428.728C226.312 428.728 67.104 503.726 40.7887 466.885C14.4734 430.043 13.1577 411.623 13.1577 411.623C13.1577 411.623 114.472 348.466 130.261 352.413Z" fill="#2F2E41"/>
<path id="Vector_17" d="M327.625 439.254C327.625 439.254 369.73 466.885 319.731 480.043C269.732 493.2 232.89 474.779 232.89 474.779C232.89 474.779 189.47 474.779 189.47 452.411C189.47 430.043 203.944 427.412 203.944 427.412L248.68 433.991C248.68 433.991 302.626 419.517 327.625 439.254Z" fill="#D0CDE1"/>
<path id="Vector_18" d="M244.621 71.7346C248.651 73.5312 252.647 75.6575 257.029 76.179C261.41 76.7005 266.399 75.1708 268.472 71.276C269.592 69.1723 269.72 66.6978 269.772 64.3151C269.931 57.09 269.408 49.2792 264.83 43.6877C261.916 40.1292 257.662 37.8859 254.646 34.4137C252.485 31.9261 251.047 28.9109 249.498 26.0023C243.632 14.9851 234.947 4.39672 222.876 1.22056C217.836 -0.105728 212.548 -0.0409962 207.337 0.0325738L176.94 0.461407C172.02 0.530807 167.026 0.611449 162.317 2.03523C152.533 4.99346 145.409 13.2212 138.884 21.0895C134.003 26.9762 129.109 32.9238 125.446 39.6364C120.194 49.4321 117.538 60.4098 117.732 71.5231C117.691 74.3733 118.059 77.2146 118.824 79.9604C119.72 82.4787 120.829 84.9157 122.141 87.2447C127.841 98.4414 131.226 112.427 124.806 123.227C135.958 118.672 146.992 112.699 154.348 103.16C157.639 98.8921 160.22 93.8964 164.606 90.7648C168.992 87.6333 176.138 87.3616 178.952 91.9576C179.919 93.8169 180.417 95.8843 180.403 97.9801C180.608 101.43 180.602 105.013 182.065 108.144C183.528 111.275 187.012 113.801 190.339 112.864C196.067 111.251 195.519 102.458 199.931 98.4644C203.282 95.4312 208.452 96.0111 212.757 94.6341C217.773 93.0299 221.536 88.6845 223.681 83.8747C225.311 80.2188 225.287 70.6517 228.371 68.6719C232.239 66.189 241.036 70.1363 244.621 71.7346Z" fill="#2F2E41"/>
<path id="Vector_19" d="M97.2716 129.729C99.9352 129.018 102.74 129.025 105.4 129.75C113.846 132.017 132.78 138.02 136.839 147.154C142.103 158.996 160.523 177.417 160.523 177.417C160.523 177.417 185.523 202.416 180.26 219.521C174.997 236.626 155.26 256.363 155.26 256.363C155.26 256.363 160.523 337.94 134.208 358.992C107.893 380.045 97.3665 365.571 97.3665 385.308C97.3665 405.044 15.7892 466.885 0 428.728C0 428.728 7.89459 357.676 5.26306 332.677C2.66948 308.038 6.46634 154.312 97.2716 129.729Z" fill="#D0CDE1"/>
<path id="Vector_20" d="M139.471 162.943C139.471 162.943 219.733 222.153 205.259 247.152C205.259 247.152 156.576 270.836 146.05 269.52C135.524 268.205 94.7351 222.153 84.2089 218.205C73.6828 214.258 68.4198 143.207 139.471 162.943Z" fill="#D0CDE1"/>
</g>
</svg>
