<svg width="676" height="440" viewBox="0 0 676 440" fill="none" xmlns="http://www.w3.org/2000/svg">
<g id="window">
<path id="Vector" d="M97.5449 302.458C133.443 302.458 162.545 273.356 162.545 237.458C162.545 201.559 133.443 172.458 97.5449 172.458C61.6464 172.458 32.5449 201.559 32.5449 237.458C32.5449 273.356 61.6464 302.458 97.5449 302.458Z" fill="#F2F2F2"/>
<path id="Vector_2" d="M634.411 153.041H270.162V76.8212H634.411V153.041ZM271.767 151.436H632.806V78.4258H271.767V151.436Z" fill="#3F3D56"/>
<path id="content" d="M607.935 92.0651H245.291V166.68H607.935V92.0651Z" fill="#6C63FF"/>
<path id="Vector_3" d="M16.0461 20.8601C19.1478 20.8601 21.6623 18.3456 21.6623 15.2439C21.6623 12.1421 19.1478 9.62762 16.0461 9.62762C12.9443 9.62762 10.4298 12.1421 10.4298 15.2439C10.4298 18.3456 12.9443 20.8601 16.0461 20.8601Z" fill="#6C63FF"/>
<path id="Vector_4" d="M35.3015 20.8601C38.4033 20.8601 40.9178 18.3456 40.9178 15.2439C40.9178 12.1421 38.4033 9.62762 35.3015 9.62762C32.1997 9.62762 29.6853 12.1421 29.6853 15.2439C29.6853 18.3456 32.1997 20.8601 35.3015 20.8601Z" fill="#6C63FF"/>
<path id="Vector_5" d="M54.5569 20.8601C57.6587 20.8601 60.1732 18.3456 60.1732 15.2439C60.1732 12.1421 57.6587 9.62762 54.5569 9.62762C51.4552 9.62762 48.9407 12.1421 48.9407 15.2439C48.9407 18.3456 51.4552 20.8601 54.5569 20.8601Z" fill="#6C63FF"/>
<path id="Vector_6" d="M675.545 439.666H0V0H675.545V439.666ZM1.60461 438.061H673.94V1.60462H1.60461V438.061Z" fill="#3F3D56"/>
<path id="Vector_7" d="M674.743 24.338H0.802307V25.9427H674.743V24.338Z" fill="#3F3D56"/>
<path id="Vector_8" d="M17.6508 19.2555C16.3814 19.2555 15.1404 18.879 14.0849 18.1737C13.0294 17.4685 12.2067 16.466 11.7209 15.2932C11.2351 14.1204 11.108 12.8299 11.3557 11.5848C11.6033 10.3397 12.2146 9.19606 13.1123 8.29842C14.0099 7.40078 15.1536 6.78948 16.3986 6.54182C17.6437 6.29416 18.9342 6.42127 20.1071 6.90707C21.2799 7.39287 22.2823 8.21555 22.9876 9.27106C23.6929 10.3266 24.0693 11.5675 24.0693 12.837C24.0673 14.5387 23.3905 16.1701 22.1872 17.3733C20.9839 18.5766 19.3525 19.2535 17.6508 19.2555ZM17.6508 8.02311C16.6987 8.02311 15.768 8.30544 14.9764 8.83439C14.1848 9.36335 13.5678 10.1152 13.2034 10.9948C12.8391 11.8744 12.7437 12.8423 12.9294 13.7761C13.1152 14.7099 13.5737 15.5677 14.2469 16.2409C14.9201 16.9141 15.7779 17.3726 16.7117 17.5583C17.6455 17.7441 18.6134 17.6487 19.493 17.2844C20.3726 16.92 21.1244 16.303 21.6534 15.5114C22.1823 14.7198 22.4647 13.7891 22.4647 12.837C22.4632 11.5607 21.9556 10.3371 21.0531 9.4347C20.1507 8.53224 18.9271 8.02459 17.6508 8.02311V8.02311Z" fill="#3F3D56"/>
<path id="Vector_9" d="M36.9063 19.2555C35.6368 19.2555 34.3959 18.879 33.3403 18.1737C32.2848 17.4685 31.4622 16.466 30.9764 15.2932C30.4906 14.1204 30.3635 12.8299 30.6111 11.5848C30.8588 10.3397 31.4701 9.19606 32.3677 8.29842C33.2654 7.40078 34.409 6.78948 35.6541 6.54182C36.8992 6.29416 38.1897 6.42127 39.3625 6.90707C40.5353 7.39287 41.5378 8.21555 42.243 9.27106C42.9483 10.3266 43.3248 11.5675 43.3248 12.837C43.3228 14.5387 42.6459 16.1701 41.4426 17.3733C40.2394 18.5766 38.6079 19.2535 36.9063 19.2555V19.2555ZM36.9063 8.02311C35.9542 8.02311 35.0235 8.30544 34.2318 8.83439C33.4402 9.36335 32.8232 10.1152 32.4588 10.9948C32.0945 11.8744 31.9991 12.8423 32.1849 13.7761C32.3706 14.7099 32.8291 15.5677 33.5024 16.2409C34.1756 16.9141 35.0333 17.3726 35.9671 17.5583C36.9009 17.7441 37.8688 17.6487 38.7485 17.2844C39.6281 16.92 40.3799 16.303 40.9089 15.5114C41.4378 14.7198 41.7201 13.7891 41.7201 12.837C41.7187 11.5607 41.211 10.3371 40.3085 9.4347C39.4061 8.53224 38.1825 8.02459 36.9063 8.02311V8.02311Z" fill="#3F3D56"/>
<path id="Vector_10" d="M56.1617 19.2554C54.8923 19.2554 53.6513 18.879 52.5958 18.1737C51.5403 17.4685 50.7176 16.466 50.2318 15.2932C49.746 14.1204 49.6189 12.8299 49.8665 11.5848C50.1142 10.3397 50.7255 9.19606 51.6231 8.29842C52.5208 7.40078 53.6645 6.78948 54.9095 6.54182C56.1546 6.29416 57.4451 6.42127 58.6179 6.90706C59.7908 7.39286 60.7932 8.21553 61.4985 9.27104C62.2038 10.3266 62.5802 11.5675 62.5802 12.837C62.5782 14.5386 61.9014 16.1701 60.6981 17.3733C59.4948 18.5766 57.8634 19.2535 56.1617 19.2554V19.2554ZM56.1617 8.02311C55.2096 8.0231 54.2789 8.30543 53.4873 8.83439C52.6956 9.36334 52.0786 10.1152 51.7143 10.9948C51.3499 11.8744 51.2546 12.8423 51.4403 13.7761C51.6261 14.7099 52.0846 15.5676 52.7578 16.2409C53.431 16.9141 54.2888 17.3726 55.2226 17.5583C56.1564 17.7441 57.1243 17.6487 58.0039 17.2844C58.8835 16.92 59.6353 16.303 60.1643 15.5114C60.6932 14.7198 60.9756 13.7891 60.9756 12.837C60.9741 11.5607 60.4664 10.3372 59.564 9.4347C58.6615 8.53225 57.438 8.02459 56.1617 8.02311V8.02311Z" fill="#3F3D56"/>
<path id="Vector_11" d="M213.195 25.1404H211.59V439.486H213.195V25.1404Z" fill="#3F3D56"/>
<path id="Vector_12" d="M406.154 228.859H288.214V244.905H406.154V228.859Z" fill="#F2F2F2"/>
<path id="Vector_13" d="M591.487 228.859H473.548V244.905H591.487V228.859Z" fill="#F2F2F2"/>
<path id="Vector_14" d="M413.375 237.684H293.83V220.033H413.375V237.684ZM295.435 236.08H411.77V221.638H295.435V236.08Z" fill="#3F3D56"/>
<path id="Vector_15" d="M406.154 353.217H288.214V369.263H406.154V353.217Z" fill="#F2F2F2"/>
<path id="Vector_16" d="M413.375 362.042H293.83V344.392H413.375V362.042ZM295.435 360.438H411.77V345.996H295.435V360.438Z" fill="#3F3D56"/>
<path id="Vector_17" d="M591.888 289.433H288.615V305.479H591.888V289.433Z" fill="#F2F2F2"/>
<path id="Vector_18" d="M599.109 299.863H294.231V282.212H599.109V299.863ZM295.836 298.259H597.505V283.817H295.836V298.259Z" fill="#3F3D56"/>
<path id="Vector_19" d="M598.708 237.684H479.164V220.033H598.708V237.684ZM480.768 236.08H597.103V221.638H480.768V236.08Z" fill="#3F3D56"/>
<path id="Vector_20" d="M108.545 285.458C95.4914 285.458 82.7309 281.587 71.8773 274.335C61.0236 267.083 52.5643 256.775 47.5689 244.715C42.5735 232.655 41.2665 219.385 43.8131 206.582C46.3597 193.779 52.6456 182.019 61.8759 172.789C71.1061 163.559 82.8662 157.273 95.669 154.726C108.472 152.179 121.742 153.487 133.802 158.482C145.862 163.477 156.17 171.937 163.422 182.79C170.674 193.644 174.545 206.404 174.545 219.458C174.525 236.956 167.565 253.732 155.192 266.105C142.819 278.478 126.043 285.438 108.545 285.458ZM108.545 155.458C95.8869 155.458 83.5132 159.211 72.9884 166.244C62.4637 173.276 54.2606 183.272 49.4166 194.966C44.5726 206.661 43.3052 219.529 45.7747 231.944C48.2441 244.359 54.3395 255.762 63.2901 264.713C72.2407 273.663 83.6444 279.759 96.0592 282.228C108.474 284.698 121.342 283.43 133.037 278.586C144.731 273.742 154.727 265.539 161.759 255.014C168.791 244.49 172.545 232.116 172.545 219.458C172.526 202.49 165.777 186.223 153.779 174.224C141.78 162.226 125.513 155.477 108.545 155.458Z" fill="#3F3D56"/>
</g>
</svg>
